# xmcd CD database file
#
# Track frame offsets:
#	150
#	19890
#	55204
#	82357
#	102468
#	143420
#	164703
#	187249
#	205920
#	228624
#	248220
#	270065
#
# Disc length: 3880 seconds
#
# Revision: 0
# Processed by: cddbd v1.5.2PL0 Copyright (c) Steve Scherf et al.
# Submitted via: CDex 1.70beta2
#
DISCID=ae0f260c
DTITLE=Patricia Berg - Sweet Sorrow
DYEAR=2008
DGENRE=Jazz
TTITLE0=Can't You See That
TTITLE1=Manha De Carnaval
TTITLE2=I Concentrate on You
TTITLE3=Nature Boy
TTITLE4=Black Coffee
TTITLE5=Sweet Sorrow
TTITLE6=Tango Verde
TTITLE7=Andres
TTITLE8=Calling You
TTITLE9=Irresistible
TTITLE10=Here's To Life
TTITLE11=Sweet Sorrow (reprise)
EXTD=YEAR: 2008
EXTT0=
EXTT1=
EXTT2=
EXTT3=
EXTT4=
EXTT5=
EXTT6=
EXTT7=
EXTT8=
EXTT9=
EXTT10=
EXTT11=
PLAYORDER=
